<svg width="215" height="40" viewBox="0 0 215 40">
  <g fill="none" fill-rule="evenodd">
    <rect width="130.87" height="32.667" x="84.13" y="7.333" fill="#F6E3CB" rx="2.667"/>
    <path fill="#3F3E3B" d="M95.867 20.427c.856-1.049 1.969-1.573 3.339-1.573 2.386 0 3.589 1.344 3.61 4.031v7.448h-1.93v-7.458c-.007-.813-.193-1.413-.559-1.802-.365-.389-.933-.583-1.705-.583-.626 0-1.176.166-1.649.5-.473.333-.841.77-1.106 1.312v8.031h-1.93v-16h1.93v6.094zm14.523 10.115c-1.53 0-2.775-.502-3.735-1.506-.96-1.003-1.44-2.345-1.44-4.026v-.354c0-1.118.214-2.116.642-2.995.428-.878 1.026-1.566 1.794-2.062a4.517 4.517 0 0 1 2.499-.745c1.468 0 2.608.483 3.422 1.448.814.965 1.22 2.347 1.22 4.146v.802h-7.647c.028 1.111.353 2.009.976 2.693.622.684 1.413 1.026 2.373 1.026.682 0 1.26-.14 1.732-.417a4.35 4.35 0 0 0 1.242-1.104l1.178.917c-.945 1.451-2.364 2.177-4.256 2.177zm-.24-10.105c-.779 0-1.433.283-1.961.85-.529.565-.856 1.359-.981 2.38h5.654v-.146c-.055-.98-.32-1.738-.792-2.276-.473-.538-1.113-.808-1.92-.808zm8.972 9.896h-1.93v-16h1.93v16zm12.624-5.51c0 1.715-.393 3.097-1.179 4.146-.786 1.048-1.85 1.573-3.192 1.573-1.37 0-2.449-.434-3.235-1.302v5.427h-1.93V19.062h1.763l.094 1.25c.786-.972 1.878-1.458 3.276-1.458 1.357 0 2.43.51 3.219 1.531.79 1.021 1.184 2.441 1.184 4.26v.178zm-1.93-.219c0-1.27-.271-2.274-.814-3.01-.542-.736-1.287-1.104-2.233-1.104-1.168 0-2.044.517-2.629 1.552v5.385c.578 1.028 1.461 1.542 2.65 1.542.925 0 1.66-.367 2.207-1.1.546-.732.819-1.82.819-3.265zm8.398.073h-5.09v-1.573h5.09v1.573zm11.873 3l2.17-8.614h1.93l-3.286 11.27h-1.565l-2.744-8.541-2.671 8.541h-1.565l-3.276-11.27H141l2.222 8.437 2.63-8.438h1.554l2.68 8.615zm13.03 2.656c-.11-.222-.201-.618-.27-1.187-.898.93-1.97 1.396-3.214 1.396-1.113 0-2.026-.315-2.739-.943-.713-.629-1.07-1.425-1.07-2.39 0-1.174.448-2.086 1.342-2.735.893-.65 2.15-.974 3.771-.974h1.878v-.885c0-.674-.202-1.21-.605-1.61-.404-.4-.998-.599-1.784-.599-.689 0-1.266.174-1.732.521-.466.347-.699.767-.699 1.26h-1.94c0-.562.2-1.105.6-1.63.4-.524.942-.939 1.627-1.244a5.483 5.483 0 0 1 2.259-.459c1.3 0 2.32.325 3.056.974.738.65 1.12 1.544 1.148 2.682v5.188c0 1.035.132 1.858.396 2.469v.166h-2.024zm-3.202-1.468c.605 0 1.179-.157 1.721-.47.543-.312.935-.718 1.179-1.218v-2.312h-1.513c-2.365 0-3.547.69-3.547 2.073 0 .604.202 1.076.605 1.416.404.34.922.51 1.555.51zm9.681-9.802l.063 1.416c.862-1.083 1.99-1.625 3.38-1.625 2.386 0 3.589 1.344 3.61 4.031v7.448h-1.93v-7.458c-.007-.813-.193-1.413-.558-1.802-.366-.389-.934-.583-1.706-.583-.626 0-1.176.166-1.649.5-.472.333-.841.77-1.105 1.312v8.031h-1.93v-11.27h1.825zm12.582-2.73v2.73h2.108v1.49h-2.108v6.989c0 .451.094.79.282 1.015.188.226.508.339.96.339.222 0 .528-.042.918-.125v1.562a5.604 5.604 0 0 1-1.482.209c-.862 0-1.512-.26-1.95-.782-.439-.52-.658-1.26-.658-2.218v-6.99h-2.055v-1.49h2.055v-2.729h1.93zm9.046 14.209c-1.53 0-2.776-.502-3.735-1.506-.96-1.003-1.44-2.345-1.44-4.026v-.354c0-1.118.214-2.116.641-2.995.428-.878 1.026-1.566 1.795-2.062a4.517 4.517 0 0 1 2.499-.745c1.467 0 2.608.483 3.422 1.448.813.965 1.22 2.347 1.22 4.146v.802h-7.647c.028 1.111.353 2.009.975 2.693.623.684 1.414 1.026 2.374 1.026.681 0 1.259-.14 1.732-.417a4.35 4.35 0 0 0 1.241-1.104l1.18.917c-.947 1.451-2.366 2.177-4.257 2.177zm-.24-10.105c-.78 0-1.433.283-1.962.85-.528.565-.855 1.359-.98 2.38h5.654v-.146c-.056-.98-.32-1.738-.793-2.276-.473-.538-1.113-.808-1.92-.808zm6.405 4.167c0-1.729.41-3.12 1.231-4.172.821-1.052 1.896-1.578 3.224-1.578 1.322 0 2.368.452 3.14 1.354v-5.875h1.93v16h-1.773l-.094-1.208c-.772.944-1.847 1.417-3.224 1.417-1.307 0-2.373-.535-3.197-1.605-.825-1.069-1.237-2.465-1.237-4.187v-.146zm1.93.219c0 1.278.265 2.278.793 3 .529.722 1.26 1.083 2.191 1.083 1.224 0 2.118-.548 2.681-1.646v-5.177c-.577-1.062-1.464-1.593-2.66-1.593-.946 0-1.683.364-2.212 1.093-.528.73-.793 1.81-.793 3.24z"/>
    <g fill="#E04E39" fill-rule="nonzero">
      <path d="M75.45 31.338v-.519h.33c.046 0 .091.005.14.01.047.007.093.019.132.036.04.017.072.04.096.072a.192.192 0 0 1 .038.127c0 .12-.036.197-.108.228a.713.713 0 0 1-.279.046h-.349zm-.392-.824v1.974h.392v-.843h.246l.48.843h.412l-.53-.862a.936.936 0 0 0 .205-.043.477.477 0 0 0 .164-.094.401.401 0 0 0 .11-.158.569.569 0 0 0 .041-.233c0-.214-.067-.365-.2-.452-.134-.089-.326-.132-.574-.132h-.746zm-.627.99c0-.202.033-.387.103-.555.07-.168.164-.312.284-.435a1.287 1.287 0 0 1 .943-.391 1.291 1.291 0 0 1 .94.391 1.395 1.395 0 0 1 .392.99 1.418 1.418 0 0 1-.392.997 1.291 1.291 0 0 1-.94.394c-.186-.001-.359-.035-.522-.104a1.258 1.258 0 0 1-.421-.291 1.37 1.37 0 0 1-.284-.44 1.454 1.454 0 0 1-.103-.557zm-.484 0c0 .27.05.513.15.73.1.218.233.403.399.557.168.153.36.27.58.353.218.081.447.122.685.122.24 0 .469-.04.688-.122.218-.082.41-.2.58-.353.165-.154.297-.339.398-.558.099-.216.147-.458.147-.73 0-.266-.048-.509-.147-.725a1.71 1.71 0 0 0-.978-.907 1.898 1.898 0 0 0-.688-.125 1.895 1.895 0 0 0-1.265.478 1.71 1.71 0 0 0-.549 1.28z"/>
      <path d="M84.737 22.871s-2.096 1.624-3.942 1.443c-1.845-.181-1.266-4.299-1.266-4.299s.398-3.776-.689-4.093c-1.084-.315-2.422.984-2.422.984s-1.664 1.843-2.46 4.192l-.22.072s.255-4.12-.034-5.059c-.216-.469-2.206-.432-2.532.398-.326.832-1.917 6.61-2.027 9.032 0 0-3.111 2.637-5.822 3.07-2.714.434-3.366-1.265-3.366-1.265s7.38-2.059 7.126-7.947c-.25-5.888-5.95-3.709-6.594-3.226-.625.47-3.956 2.474-4.928 8.03-.032.186-.09 1.012-.09 1.012s-2.858 1.912-4.45 2.42c0 0 4.45-7.478-.975-10.873-1.526-.917-2.855-.073-3.646.701-.486.476 6.576-7.237 4.947-14.138C50.572.039 48.927-.313 47.418.22c-2.292.901-3.16 2.237-3.16 2.237s-2.967 4.299-3.656 10.693c-.686 6.392-1.699 14.123-1.699 14.123s-1.412 1.373-2.713 1.445c-1.303.07-.724-3.866-.724-3.866s1.012-5.995.943-7.008c-.075-1.01-.147-1.552-1.34-1.912-1.195-.363-2.498 1.154-2.498 1.154s-3.435 5.2-3.723 5.995l-.184.328-.18-.219s2.423-7.08.11-7.186c-2.315-.11-3.835 2.528-3.835 2.528s-2.642 4.408-2.751 4.912l-.179-.216s1.084-5.128.868-6.395c-.219-1.264-1.41-1.01-1.41-1.01s-1.52-.182-1.918.794c-.398.976-1.845 7.44-2.027 9.499 0 0-3.798 2.71-6.295 2.744-2.495.037-2.24-1.579-2.24-1.579s9.152-3.128 6.655-9.304c-1.122-1.59-2.423-2.088-4.268-2.053-1.846.037-4.135 1.16-5.617 4.482-.71 1.584-.967 3.091-1.114 4.227 0 0-1.6.328-2.467-.395-.871-.722-1.317 0-1.317 0s-1.49 1.9-.008 2.475c1.485.579 3.798.848 3.798.848.213 1.01.83 2.73 2.638 4.099 2.714 2.058 7.92-.19 7.92-.19l2.133-1.194s.073 1.954 1.63 2.24c1.554.285 2.206-.006 4.92-6.579 1.591-3.36 1.7-3.179 1.7-3.179.18-.037-1.05 6.392-.579 8.126.47 1.736 2.532 1.554 2.532 1.554s1.122.216 2.027-2.962c.903-3.179 2.641-6.683 2.641-6.683.214 0-.544 6.573.612 8.67 1.16 2.095 4.161.703 4.161.703s2.1-1.056 2.425-1.38c0 0 2.49 2.116 6.002 1.732 7.852-1.544 10.645-3.629 10.645-3.629s1.35 3.413 5.529 3.73c4.773.36 7.38-2.637 7.38-2.637s-.038 1.95 1.626 2.638c1.667.685 2.786-3.174 2.786-3.174l2.785-7.664c.254 0 .398 4.984 3.15 5.78 2.747.794 6.329-1.862 6.329-1.862s.868-.478.724-1.923c-.147-1.445-1.448-.907-1.448-.907zm-72.459-3.616c.975.94.614 2.96-1.231 4.224-1.843 1.267-2.676 1.014-2.676 1.014.11-4.299 2.932-6.179 3.907-5.238zM48.273 4.41c.614 3.25-5.39 12.93-5.39 12.93.072-2.167 2.206-9.498 2.206-9.498s2.567-6.683 3.184-3.432zm-5.935 24.67s-.47-1.59.868-6.033c1.34-4.442 4.487-2.709 4.487-2.709s2.171 1.661.47 6.104c-1.698 4.443-5.825 2.637-5.825 2.637zm18.306-8.705c1.482-2.709 2.641-1.229 2.641-1.229s1.266 1.373-.181 3.432c-1.448 2.059-3.545 1.915-3.545 1.915s-.397-1.41 1.085-4.118z"/>
    </g>
  </g>
</svg>
